<svg width="18" height="18" viewBox="0 0 18 18" fill="none" xmlns="http://www.w3.org/2000/svg">
<path d="M9 16.5C13.1421 16.5 16.5 13.1421 16.5 9C16.5 4.85786 13.1421 1.5 9 1.5C4.85786 1.5 1.5 4.85786 1.5 9C1.5 13.1421 4.85786 16.5 9 16.5Z" stroke="#8B7FDB" stroke-linecap="round" stroke-linejoin="round"/>
<path d="M12.25 9.43301C12.4047 9.3437 12.5 9.17863 12.5 9C12.5 8.82137 12.4047 8.6563 12.25 8.56699L7.75 5.96891C7.5953 5.87959 7.4047 5.87959 7.25 5.96891C7.0953 6.05823 7 6.22329 7 6.40192L7 11.5981C7 11.7767 7.0953 11.9418 7.25 12.0311C7.4047 12.1204 7.5953 12.1204 7.75 12.0311L12.25 9.43301Z" stroke="#8B7FDB" stroke-linejoin="round"/>
</svg>
