<svg xmlns="http://www.w3.org/2000/svg" width="24" height="24" fill="none"><mask id="a" fill="#fff"><path fill-rule="evenodd" d="M19.286 15.96A1.65 1.65 0 0 1 19.4 15a1.65 1.65 0 0 1 1.51-1H21a2 2 0 0 0 0-4h-.17a1.65 1.65 0 0 1-1.51-1v-.08a1.65 1.65 0 0 1 .33-1.82l.06-.06a1.998 1.998 0 0 0 0-2.83 2 2 0 0 0-2.83 0l-.06.06A1.65 1.65 0 0 1 15 4.6a1.65 1.65 0 0 1-1-1.51V3a2 2 0 1 0-4 0v.17a1.65 1.65 0 0 1-1 1.51h-.08a1.65 1.65 0 0 1-1.82-.33l-.06-.06a2 2 0 1 0-2.83 2.83l.06.06A1.65 1.65 0 0 1 4.6 9a1.65 1.65 0 0 1-1.51 1.08H3a2 2 0 1 0 0 4h.17a1.65 1.65 0 0 1 1.51 1 1.65 1.65 0 0 1-.33 1.82l-.06.06a2 2 0 0 0 1.415 3.417 2 2 0 0 0 1.415-.587l.06-.06A1.65 1.65 0 0 1 9 19.4a1.65 1.65 0 0 1 1.08 1.51V21a2 2 0 0 0 4 0v-.17a1.65 1.65 0 0 1 1-1.51 1.65 1.65 0 0 1 1.82.33l.06.06a1.998 1.998 0 0 0 2.83 0 1.998 1.998 0 0 0 0-2.83l-.06-.06a1.65 1.65 0 0 1-.444-.86ZM15 12a3 3 0 1 1-6 0 3 3 0 0 1 6 0Z" clip-rule="evenodd"/></mask><path fill="#8B7FDB" fill-rule="evenodd" d="M19.286 15.96A1.65 1.65 0 0 1 19.4 15a1.65 1.65 0 0 1 1.51-1H21a2 2 0 0 0 0-4h-.17a1.65 1.65 0 0 1-1.51-1v-.08a1.65 1.65 0 0 1 .33-1.82l.06-.06a1.998 1.998 0 0 0 0-2.83 2 2 0 0 0-2.83 0l-.06.06A1.65 1.65 0 0 1 15 4.6a1.65 1.65 0 0 1-1-1.51V3a2 2 0 1 0-4 0v.17a1.65 1.65 0 0 1-1 1.51h-.08a1.65 1.65 0 0 1-1.82-.33l-.06-.06a2 2 0 1 0-2.83 2.83l.06.06A1.65 1.65 0 0 1 4.6 9a1.65 1.65 0 0 1-1.51 1.08H3a2 2 0 1 0 0 4h.17a1.65 1.65 0 0 1 1.51 1 1.65 1.65 0 0 1-.33 1.82l-.06.06a2 2 0 0 0 1.415 3.417 2 2 0 0 0 1.415-.587l.06-.06A1.65 1.65 0 0 1 9 19.4a1.65 1.65 0 0 1 1.08 1.51V21a2 2 0 0 0 4 0v-.17a1.65 1.65 0 0 1 1-1.51 1.65 1.65 0 0 1 1.82.33l.06.06a1.998 1.998 0 0 0 2.83 0 1.998 1.998 0 0 0 0-2.83l-.06-.06a1.65 1.65 0 0 1-.444-.86ZM15 12a3 3 0 1 1-6 0 3 3 0 0 1 6 0Z" clip-rule="evenodd"/><path fill="#8B7FDB" d="m19.4 15 1.83.807.008-.02L19.4 15Zm1.51-1v-2h-.008l.008 2Zm-.08-4-.008 2h.008v-2Zm-1.51-1h-2a2 2 0 0 0 .162.788L19.32 9Zm0-.08h2a2 2 0 0 0-.17-.808l-1.83.808Zm.33-1.82-1.414-1.414a1.43 1.43 0 0 0-.016.015L19.65 7.1Zm.06-.06-1.413-1.415h-.001L19.71 7.04Zm.434-2.18-1.847.765 1.847-.766Zm-.434-.65-1.415 1.413.002.002L19.71 4.21Zm-2.83 0 1.414 1.414h.001L16.88 4.21Zm-.06.06 1.398 1.43.016-.016L16.82 4.27ZM15 4.6l.807-1.83-.02-.008L15 4.6Zm-1-1.51h-2v.008l2-.008Zm-.586-1.504L12 3l1.414-1.414Zm-2.828 0L12 3l-1.414-1.414ZM10 3.17l2 .008V3.17h-2ZM9 4.68v2a2 2 0 0 0 .788-.162L9 4.68Zm-.08 0v-2a2 2 0 0 0-.808.17l.808 1.83ZM7.1 4.35 5.686 5.764l.015.016L7.1 4.35Zm-.06-.06L5.625 5.703v.001L7.04 4.29Zm-2.18-.434.765 1.847-.766-1.847Zm-.65.434 1.413 1.415.002-.002L4.21 4.29Zm-.434.65 1.847.765-1.847-.766Zm.434 2.18 1.414-1.414v-.001L4.21 7.12Zm.06.06L5.7 5.781a1.91 1.91 0 0 0-.016-.015L4.27 7.18ZM4.6 9l-1.83-.808a1.998 1.998 0 0 0-.047.118L4.6 9Zm-1.51 1.08v2h.047l-.047-2Zm-1.504.586L3 12.08l-1.414-1.414Zm0 2.828L3 12.08l-1.414 1.414Zm1.584.586.008-2H3.17v2Zm1.51 1-1.838.788.008.02 1.83-.808Zm-.33 1.82 1.414 1.414.016-.015L4.35 16.9Zm-.06.06 1.413 1.415h.001L4.29 16.96Zm0 2.83 1.415-1.413-.002-.002L4.29 19.79Zm.65.434.765-1.847-.766 1.847Zm2.18-.434-1.414-1.414h-.001L7.12 19.79Zm.06-.06L5.781 18.3l-.015.016L7.18 19.73ZM9 19.4l-.808 1.83c.039.017.078.032.118.047L9 19.4Zm1.08 1.51h2v-.047l-2 .047Zm4-.08-2-.008v.008h2Zm1-1.51.788 1.838.02-.008-.808-1.83Zm1.82.33 1.414-1.414a1.147 1.147 0 0 0-.015-.016L16.9 19.65Zm.06.06 1.415-1.413v-.001L16.96 19.71Zm2.83 0-1.413-1.415-.002.002 1.415 1.413Zm0-2.83-1.414 1.414v.001l1.414-1.415Zm-.06-.06-1.43 1.398.016.016 1.414-1.414Zm-2.16-2.627a3.65 3.65 0 0 0-.252 2.124l3.936-.713a.35.35 0 0 1-.024.204l-3.66-1.615Zm1.331-1.586a3.651 3.651 0 0 0-1.34 1.605l3.677 1.576a.35.35 0 0 1-.128.154L18.9 12.607ZM20.902 12a3.651 3.651 0 0 0-2 .607l2.208 3.335a.35.35 0 0 1-.192.058l-.016-4ZM21 12h-.09v4H21v-4Zm0 0v4a4 4 0 0 0 2.828-1.172L21 12Zm0 0 2.828 2.828A4 4 0 0 0 25 12h-4Zm0 0h4a4 4 0 0 0-1.172-2.828L21 12Zm0 0 2.828-2.828A4 4 0 0 0 21 8v4Zm-.17 0H21V8h-.17v4Zm-2.009-.607a3.651 3.651 0 0 0 2.001.607l.016-4a.35.35 0 0 1 .192.058l-2.209 3.335Zm-1.34-1.605c.281.654.747 1.212 1.34 1.605l2.209-3.335a.35.35 0 0 1 .128.154l-3.676 1.576Zm-.161-.868V9h4v-.08h-4Zm-.082-1.317a3.65 3.65 0 0 0 .252 2.125l3.66-1.616a.35.35 0 0 1 .024.204l-3.936-.713ZM18.22 5.7a3.65 3.65 0 0 0-.982 1.902l3.936.713a.35.35 0 0 1-.094.183L18.22 5.7Zm.076-.075-.06.06 2.828 2.828.06-.06-2.828-2.828Zm0-.001 2.827 2.83a4 4 0 0 0 .869-1.298l-3.695-1.532Zm0 0 3.696 1.532a4 4 0 0 0 .305-1.532h-4Zm0 0h4a4 4 0 0 0-.304-1.532l-3.695 1.532Zm0 0 3.696-1.532a4 4 0 0 0-.869-1.298l-2.826 2.83Zm-.001-.002 2.83-2.826a4 4 0 0 0-1.298-.869l-1.532 3.695Zm0 0 1.532-3.695a4 4 0 0 0-1.532-.305v4Zm0 0v-4a4 4 0 0 0-1.532.305l1.532 3.695Zm0 0-1.532-3.695a4 4 0 0 0-1.298.869l2.83 2.826Zm-.06.061.06-.06-2.83-2.828-.06.06 2.83 2.828Zm-1.918.998a3.65 3.65 0 0 0 1.901-.982l-2.796-2.86a.35.35 0 0 1 .182-.094l.713 3.936Zm-2.124-.252a3.65 3.65 0 0 0 2.124.252l-.713-3.936a.35.35 0 0 1 .204.024l-1.615 3.66Zm-1.586-1.331a3.65 3.65 0 0 0 1.605 1.34l1.576-3.677a.35.35 0 0 1 .154.128L12.607 5.1ZM12 3.098a3.65 3.65 0 0 0 .607 2l3.335-2.208a.35.35 0 0 1 .058.192l-4 .016ZM12 3v.09h4V3h-4Zm0 0h4A4 4 0 0 0 14.828.172L12 3Zm0 0L14.828.172A4 4 0 0 0 12-1v4Zm0 0v-4A4 4 0 0 0 9.172.172L12 3Zm0 0L9.172.172A4 4 0 0 0 8 3h4Zm0 .17V3H8v.17h4Zm-.607 2.009A3.65 3.65 0 0 0 12 3.178l-4-.016a.35.35 0 0 1 .058-.192l3.335 2.209Zm-1.605 1.34a3.65 3.65 0 0 0 1.605-1.34L8.058 2.97a.35.35 0 0 1 .154-.128l1.576 3.676Zm-.868.161H9v-4h-.08v4Zm-1.317.082a3.65 3.65 0 0 0 2.125-.252L8.112 2.85a.35.35 0 0 1 .204-.024l-.713 3.936ZM5.7 5.78a3.65 3.65 0 0 0 1.902.982l.713-3.936a.35.35 0 0 1 .183.094L5.7 5.78Zm-.075-.076.06.06 2.828-2.828-.06-.06-2.828 2.828Zm-.001 0 2.83-2.827a4 4 0 0 0-1.298-.869L5.625 5.703Zm0 0 1.532-3.696a4 4 0 0 0-1.532-.305v4Zm0 0v-4a4 4 0 0 0-1.532.304l1.532 3.695Zm0 0L4.093 2.007a4 4 0 0 0-1.298.869l2.83 2.826Zm-.002.001-2.826-2.83a4 4 0 0 0-.869 1.298l3.695 1.532Zm0 0L1.928 4.173a4 4 0 0 0-.305 1.532h4Zm0 0h-4a4 4 0 0 0 .305 1.532l3.695-1.532Zm0 0L1.928 7.237a4 4 0 0 0 .869 1.298l2.826-2.83Zm.061.06-.06-.06-2.828 2.83.06.06 2.828-2.83Zm.998 1.918A3.65 3.65 0 0 0 5.7 5.78L2.84 8.58a.35.35 0 0 1-.094-.183l3.936-.713ZM6.43 9.808a3.65 3.65 0 0 0 .252-2.125l-3.936.713a.35.35 0 0 1 .024-.204l3.66 1.616Zm-1.255 1.591A3.65 3.65 0 0 0 6.477 9.69L2.723 8.31a.35.35 0 0 1 .125-.164l2.327 3.253Zm-2.038.68a3.65 3.65 0 0 0 2.038-.68L2.848 8.146a.35.35 0 0 1 .195-.065l.094 3.998ZM3 12.08h.09v-4H3v4Zm0 0v-4A4 4 0 0 0 .172 9.252L3 12.08Zm0 0L.172 9.252A4 4 0 0 0-1 12.08h4Zm0 0h-4a4 4 0 0 0 1.172 2.828L3 12.08Zm0 0L.172 14.908A4 4 0 0 0 3 16.08v-4Zm.17 0H3v4h.17v-4Zm2.009.607a3.65 3.65 0 0 0-2.001-.607l-.016 4a.35.35 0 0 1-.192-.058l2.209-3.335Zm1.34 1.605a3.65 3.65 0 0 0-1.34-1.605L2.97 16.022a.35.35 0 0 1-.128-.154l3.676-1.576Zm.243 2.105a3.65 3.65 0 0 0-.252-2.124l-3.66 1.614a.35.35 0 0 1-.024-.203l3.936.713ZM5.78 18.3a3.65 3.65 0 0 0 .982-1.902l-3.936-.713a.35.35 0 0 1 .094-.182l2.86 2.796Zm-.076.075.06-.06-2.828-2.828-.06.06 2.828 2.828Zm0 .001-2.827-2.83a4 4 0 0 0-.869 1.298l3.695 1.532Zm0 0-3.696-1.532a4 4 0 0 0-.305 1.532h4Zm0 0h-4a4 4 0 0 0 .304 1.532l3.695-1.532Zm0 0-3.696 1.532a4 4 0 0 0 .869 1.298l2.826-2.83Zm.001.002-2.83 2.826a4 4 0 0 0 1.298.869l1.532-3.695Zm0 0-1.532 3.695a4 4 0 0 0 1.532.305v-4Zm0 0v4a4 4 0 0 0 1.532-.305l-1.532-3.695Zm0 0 1.532 3.695a4 4 0 0 0 1.298-.869l-2.83-2.826Zm.06-.061-.06.06 2.83 2.828.06-.06-2.83-2.828Zm1.918-.998a3.65 3.65 0 0 0-1.902.982l2.798 2.86a.35.35 0 0 1-.183.094l-.713-3.936Zm2.125.252a3.65 3.65 0 0 0-2.125-.252l.713 3.936a.35.35 0 0 1-.204-.024l1.616-3.66Zm1.591 1.255a3.65 3.65 0 0 0-1.709-1.302l-1.38 3.754a.35.35 0 0 1-.164-.125l3.253-2.327Zm.68 2.038a3.651 3.651 0 0 0-.68-2.038l-3.253 2.327a.35.35 0 0 1-.065-.195l3.998-.094Zm.001.137v-.09h-4V21h4Zm0 0h-4a4 4 0 0 0 1.172 2.828L12.08 21Zm0 0-2.828 2.828A4 4 0 0 0 12.08 25v-4Zm0 0v4a4 4 0 0 0 2.828-1.172L12.08 21Zm0 0 2.828 2.828A4 4 0 0 0 16.08 21h-4Zm0-.17V21h4v-.17h-4Zm.607-2.009a3.651 3.651 0 0 0-.607 2.001l4 .016a.35.35 0 0 1-.058.192l-3.335-2.209Zm1.605-1.34a3.651 3.651 0 0 0-1.605 1.34l3.335 2.209a.35.35 0 0 1-.154.128l-1.576-3.676Zm2.105-.243a3.65 3.65 0 0 0-2.124.252l1.614 3.66a.35.35 0 0 1-.203.024l.713-3.936Zm1.902.982a3.65 3.65 0 0 0-1.902-.982l-.713 3.936a.35.35 0 0 1-.182-.094l2.796-2.86Zm.075.076-.06-.06-2.828 2.828.06.06 2.828-2.828Zm.001 0-2.83 2.827c.371.372.813.667 1.298.869l1.532-3.695Zm0 0-1.532 3.696a4 4 0 0 0 1.532.305v-4Zm0 0v4a4 4 0 0 0 1.532-.304l-1.532-3.695Zm0 0 1.532 3.696a4.001 4.001 0 0 0 1.298-.869l-2.83-2.826Zm.002-.001 2.826 2.83c.372-.372.667-.813.869-1.298l-3.695-1.532Zm0 0 3.695 1.532a4 4 0 0 0 .305-1.532h-4Zm0 0h4a4 4 0 0 0-.305-1.532l-3.695 1.532Zm0 0 3.695-1.532a4.001 4.001 0 0 0-.869-1.298l-2.826 2.83Zm-.061-.06.06.06 2.828-2.83-.06-.06-2.828 2.83Zm-.998-1.918c.13.718.472 1.38.982 1.901l2.86-2.796a.35.35 0 0 1 .094.182l-3.936.713ZM12 17a5 5 0 0 0 5-5h-4a1 1 0 0 1-1 1v4Zm-5-5a5 5 0 0 0 5 5v-4a1 1 0 0 1-1-1H7Zm5-5a5 5 0 0 0-5 5h4a1 1 0 0 1 1-1V7Zm5 5a5 5 0 0 0-5-5v4a1 1 0 0 1 1 1h4Z" mask="url(#a)"/></svg>