<svg xmlns="http://www.w3.org/2000/svg" width="42" height="43" fill="none"><path fill="#fff" stroke="#fff" d="m40.35 40.22.466-3.889a1.937 1.937 0 0 0-.467-1.425L24.661 18.922c2.12-3.24 1.739-7.647-1.017-10.455L17.92 2.678a5.557 5.557 0 0 0-7.972 0l-7.759 7.95c-2.205 2.246-2.205 5.874 0 8.12l5.682 5.79a8.044 8.044 0 0 0 10.091 1.166l.72.734.17 2.376c.043.778.679 1.383 1.442 1.469l3.18.216.212 3.24c.042.778.678 1.383 1.441 1.469l3.18.216.212 3.24c.043.777.679 1.382 1.442 1.469l2.332.172 1.442 1.469c.381.389.89.562 1.399.475l3.773-.475c.721-.173 1.357-.777 1.442-1.555Zm-5.3-.217-1.442-1.469c-.297-.302-.636-.475-1.06-.475l-1.993-.13-.212-3.24c-.042-.777-.679-1.382-1.442-1.468l-3.137-.216-.212-3.24c-.043-.778-.679-1.383-1.442-1.469l-3.18-.216-.127-2.03a2.06 2.06 0 0 0-.466-1.08l-1.485-1.512a1.083 1.083 0 0 0-1.441-.087 5.86 5.86 0 0 1-8.014-.432l-5.681-5.745a3.593 3.593 0 0 1 0-5.012l7.759-7.949a3.435 3.435 0 0 1 4.918 0l5.682 5.79c2.205 2.246 2.332 5.917.297 8.294-.382.432-.34 1.08.042 1.468l16.197 16.503-.382 3.283-3.18.432Z"/><path fill="#fff" d="M15.036 10.022c-1.569-1.598-4.112-1.598-5.639 0-1.526 1.599-1.569 4.19 0 5.746 1.569 1.555 4.113 1.598 5.64 0a4.096 4.096 0 0 0 0-5.746Zm-4.155 4.19a1.93 1.93 0 0 1 0-2.678 1.844 1.844 0 0 1 2.629 0c.72.734.72 1.944 0 2.678a1.843 1.843 0 0 1-2.629 0Z"/></svg>