<svg xmlns="http://www.w3.org/2000/svg" width="24" height="24" fill="none"><path fill="#000" d="m13.47 10.47-.456-.206a.5.5 0 0 0 .102.56l.354-.354ZM5.413 2.585l-.216-.451a.5.5 0 0 0-.137.804l.353-.353ZM9.778 6.95l.354.353a.5.5 0 0 0 0-.707l-.354.354ZM6.95 9.778l-.354.354a.5.5 0 0 0 .707 0l-.353-.354ZM2.585 5.413l.353-.353a.5.5 0 0 0-.804.137l.45.216Zm7.158 8.33.354-.354a.5.5 0 0 0-.5-.125l.146.479Zm7.343 7.343.353-.354-.353.354ZM13.5 8c0 .808-.174 1.574-.486 2.264l.911.412c.37-.817.575-1.723.575-2.676h-1ZM8 2.5A5.5 5.5 0 0 1 13.5 8h1A6.5 6.5 0 0 0 8 1.5v1Zm-2.371.536A5.476 5.476 0 0 1 8 2.5v-1a6.476 6.476 0 0 0-2.803.634l.432.902Zm4.503 3.56L5.767 2.231l-.707.707 4.365 4.365.707-.707Zm-2.829 3.536 2.829-2.829-.707-.707-2.829 2.829.707.707ZM2.231 5.767l4.365 4.365.707-.707L2.938 5.06l-.707.707ZM2.5 8c0-.85.192-1.654.536-2.371l-.902-.432C1.727 6.047 1.5 6.997 1.5 8h1ZM8 13.5A5.5 5.5 0 0 1 2.5 8h-1A6.5 6.5 0 0 0 8 14.5v-1Zm1.598-.236A5.5 5.5 0 0 1 8 13.5v1c.656 0 1.29-.097 1.888-.279l-.29-.957Zm7.841 7.468-7.342-7.343-.708.708 7.343 7.342.707-.707Zm2.122 0a1.5 1.5 0 0 1-2.122 0l-.707.707a2.5 2.5 0 0 0 3.536 0l-.707-.707Zm.671-.671-.671.671.707.707.671-.671-.707-.707Zm0-2.122a1.5 1.5 0 0 1 0 2.122l.707.707a2.5 2.5 0 0 0 0-3.536l-.707.707Zm-7.116-7.116 7.116 7.116.707-.707-7.116-7.116-.707.707Z"/></svg>