<svg xmlns="http://www.w3.org/2000/svg"  viewBox="0 0 16 15" x="14" y="10" width="16" height="17" fill="none"><path fill="#3C3C3C" d="M7.274.662c.225-.69 1.202-.69 1.427 0l1.222 3.762a.75.75 0 0 0 .713.519h3.956c.727 0 1.029.93.441 1.357l-3.2 2.325a.75.75 0 0 0-.273.838l1.223 3.763c.224.69-.567 1.265-1.154.838l-3.2-2.325a.75.75 0 0 0-.883 0l-3.2 2.325c-.588.427-1.379-.147-1.154-.838l1.222-3.763a.75.75 0 0 0-.272-.838L.942 6.3c-.588-.428-.286-1.357.44-1.357h3.956a.75.75 0 0 0 .714-.518L7.274.662Z"/></svg>