<svg width="48" height="48" viewBox="0 0 48 48" fill="none" xmlns="http://www.w3.org/2000/svg">
<path d="M4 24C4 16.4575 4 12.6863 6.34315 10.3431C8.68629 8 12.4575 8 20 8H28C35.5425 8 39.3137 8 41.6569 10.3431C44 12.6863 44 16.4575 44 24V28C44 35.5425 44 39.3137 41.6569 41.6569C39.3137 44 35.5425 44 28 44H20C12.4575 44 8.68629 44 6.34315 41.6569C4 39.3137 4 35.5425 4 28V24Z" stroke="#6357B5" stroke-width="1.5"/>
<path d="M14 8V5" stroke="#6357B5" stroke-width="1.5" stroke-linecap="round"/>
<path d="M34 8V5" stroke="#6357B5" stroke-width="1.5" stroke-linecap="round"/>
<path d="M5 18H43" stroke="#6357B5" stroke-width="1.5" stroke-linecap="round"/>
<path d="M36 34C36 35.1046 35.1046 36 34 36C32.8954 36 32 35.1046 32 34C32 32.8954 32.8954 32 34 32C35.1046 32 36 32.8954 36 34Z" fill="#6357B5"/>
<path d="M36 26C36 27.1046 35.1046 28 34 28C32.8954 28 32 27.1046 32 26C32 24.8954 32.8954 24 34 24C35.1046 24 36 24.8954 36 26Z" fill="#6357B5"/>
<path d="M26 34C26 35.1046 25.1046 36 24 36C22.8954 36 22 35.1046 22 34C22 32.8954 22.8954 32 24 32C25.1046 32 26 32.8954 26 34Z" fill="#6357B5"/>
<path d="M26 26C26 27.1046 25.1046 28 24 28C22.8954 28 22 27.1046 22 26C22 24.8954 22.8954 24 24 24C25.1046 24 26 24.8954 26 26Z" fill="#6357B5"/>
<path d="M16 34C16 35.1046 15.1046 36 14 36C12.8954 36 12 35.1046 12 34C12 32.8954 12.8954 32 14 32C15.1046 32 16 32.8954 16 34Z" fill="#6357B5"/>
<path d="M16 26C16 27.1046 15.1046 28 14 28C12.8954 28 12 27.1046 12 26C12 24.8954 12.8954 24 14 24C15.1046 24 16 24.8954 16 26Z" fill="#6357B5"/>
</svg>
