<svg xmlns="http://www.w3.org/2000/svg" width="37" height="37" fill="none"><path fill="#fff" fill-rule="evenodd" d="M29.952.661H7.01a6.38 6.38 0 0 0-6.38 6.38v22.9a6.381 6.381 0 0 0 6.38 6.381h19.544a6.38 6.38 0 0 0 5.3-2.828l3.4-5.072a6.378 6.378 0 0 0 1.079-3.55V7.04a6.38 6.38 0 0 0-6.38-6.38v.001Zm0 3.25c1.73 0 3.13 1.4 3.13 3.13V24.87c0 .62-.184 1.229-.53 1.744l-3.398 5.071a3.131 3.131 0 0 1-2.601 1.388H7.009c-.829 0-1.625-.33-2.213-.917a3.138 3.138 0 0 1-.917-2.214V7.04a3.13 3.13 0 0 1 3.13-3.13l22.943.001Z" clip-rule="evenodd"/><path fill="#fff" fill-rule="evenodd" d="M26.132 34.631v-7.21c0-.759.614-1.375 1.375-1.375h6.828a1.626 1.626 0 0 0 0-3.25h-6.828a4.624 4.624 0 0 0-4.625 4.625v7.21a1.626 1.626 0 0 0 3.25 0ZM10.352 25.838h7.15c.894 0 1.624-.728 1.624-1.625 0-.896-.73-1.625-1.625-1.625h-7.149a1.626 1.626 0 0 0 0 3.25ZM10.352 19.16h16.2a1.626 1.626 0 0 0 0-3.25h-16.2a1.626 1.626 0 0 0 0 3.25ZM10.352 12.801h16.2a1.626 1.626 0 0 0 0-3.25h-16.2a1.626 1.626 0 0 0 0 3.25Z" clip-rule="evenodd"/></svg>