<svg xmlns="http://www.w3.org/2000/svg" width="24" height="24" fill="none"><g fill="#080808" filter="url(#a)"><path d="M21.487.997a.75.75 0 0 0-1.5.006l.01 1.986c.003.81.004 1.353-.04 1.765l-.003.015c-.456-.502-.96-.96-1.503-1.369A10.706 10.706 0 0 0 12 1.25C6.063 1.25 1.25 6.063 1.25 12S6.063 22.75 12 22.75 22.75 17.937 22.75 12a.75.75 0 0 0-1.5 0A9.25 9.25 0 1 1 12 2.75c2.084 0 4.004.688 5.55 1.85.5.375.96.799 1.373 1.265a3.704 3.704 0 0 1-.089.01c-.411.046-.955.044-1.764.04l-1.986-.008a.75.75 0 1 0-.007 1.5l2.03.009c.754.003 1.384.006 1.89-.05.53-.057 1.02-.187 1.445-.516a2.74 2.74 0 0 0 .489-.488c.329-.425.458-.915.516-1.446.056-.506.053-1.135.05-1.89l-.01-2.03Z"/><path d="M11.05 14.96c.4 0 .6.17.6.51 0 .353-.2.53-.6.53H7.67c-.407 0-.61-.177-.61-.53 0-.34.203-.51.61-.51h1.04V10.4l-.96.59a.517.517 0 0 1-.25.08c-.14 0-.26-.06-.36-.18a.636.636 0 0 1-.14-.4c0-.193.087-.343.26-.45l1.55-.96c.2-.12.39-.18.57-.18.187 0 .337.057.45.17.113.113.17.27.17.47v5.42h1.05ZM15.406 11.49c.44 0 .827.097 1.16.29.34.187.603.45.79.79.187.34.28.73.28 1.17 0 .46-.107.867-.32 1.22-.207.353-.503.63-.89.83-.38.193-.82.29-1.32.29-.413 0-.82-.067-1.22-.2a3.278 3.278 0 0 1-1.01-.56.606.606 0 0 1-.23-.47c0-.147.04-.27.12-.37.087-.107.187-.16.3-.16.067 0 .13.013.19.04.06.02.13.057.21.11.267.187.527.33.78.43.253.1.523.15.81.15.44 0 .777-.11 1.01-.33.233-.22.35-.533.35-.94 0-.393-.12-.703-.36-.93-.233-.233-.557-.35-.97-.35-.26 0-.493.037-.7.11-.2.073-.407.197-.62.37a.683.683 0 0 1-.39.13.505.505 0 0 1-.34-.12.4.4 0 0 1-.14-.32V9.55c0-.187.053-.333.16-.44.107-.107.257-.16.45-.16h3.33c.4 0 .6.167.6.5 0 .333-.2.5-.6.5h-2.68v1.9c.34-.24.757-.36 1.25-.36Z"/></g><defs><filter id="a" width="29.5" height="30.5" x="-2.75" y=".25" color-interpolation-filters="sRGB" filterUnits="userSpaceOnUse"><feFlood flood-opacity="0" result="BackgroundImageFix"/><feColorMatrix in="SourceAlpha" result="hardAlpha" values="0 0 0 0 0 0 0 0 0 0 0 0 0 0 0 0 0 0 127 0"/><feOffset dy="4"/><feGaussianBlur stdDeviation="2"/><feComposite in2="hardAlpha" operator="out"/><feColorMatrix values="0 0 0 0 0 0 0 0 0 0 0 0 0 0 0 0 0 0 0.25 0"/><feBlend in2="BackgroundImageFix" result="effect1_dropShadow_2463_3500"/><feBlend in="SourceGraphic" in2="effect1_dropShadow_2463_3500" result="shape"/></filter></defs></svg>