<svg width="49" height="49" viewBox="0 0 49 49" fill="none" xmlns="http://www.w3.org/2000/svg">
<path d="M34.708 4.08337H14.2913C12.0362 4.08337 10.208 5.91154 10.208 8.16671V40.8334C10.208 43.0885 12.0362 44.9167 14.2913 44.9167H34.708C36.9632 44.9167 38.7913 43.0885 38.7913 40.8334V8.16671C38.7913 5.91154 36.9632 4.08337 34.708 4.08337Z" stroke="#6357B5" stroke-width="2" stroke-linecap="round" stroke-linejoin="round"/>
<path d="M27.25 36.933C27.4047 36.8437 27.5 36.6786 27.5 36.5C27.5 36.3214 27.4047 36.1563 27.25 36.067L23.5 33.9019C23.3453 33.8126 23.1547 33.8126 23 33.9019C22.8453 33.9912 22.75 34.1563 22.75 34.3349L22.75 38.6651C22.75 38.8437 22.8453 39.0088 23 39.0981C23.1547 39.1874 23.3453 39.1874 23.5 39.0981L27.25 36.933Z" fill="#6357B5" stroke="#6357B5" stroke-linejoin="round"/>
<path d="M18 5.5H31" stroke="#6357B5" stroke-width="4" stroke-linecap="round"/>
<path d="M13 30H36" stroke="#6357B5" stroke-linecap="round"/>
<path d="M18 27H21" stroke="#6357B5" stroke-linecap="round"/>
<path d="M18 25H21" stroke="#6357B5" stroke-linecap="round"/>
<path d="M18 23H21" stroke="#6357B5" stroke-linecap="round"/>
<path d="M23 27H26" stroke="#6357B5" stroke-linecap="round"/>
<path d="M23 25H26" stroke="#6357B5" stroke-linecap="round"/>
<path d="M23 23H26" stroke="#6357B5" stroke-linecap="round"/>
<path d="M23 21H26" stroke="#6357B5" stroke-linecap="round"/>
<path d="M23 19H26" stroke="#6357B5" stroke-linecap="round"/>
<path d="M23 17H26" stroke="#6357B5" stroke-linecap="round"/>
<path d="M28 27H31" stroke="#6357B5" stroke-linecap="round"/>
<path d="M28 25H31" stroke="#6357B5" stroke-linecap="round"/>
<path d="M28 23H31" stroke="#6357B5" stroke-linecap="round"/>
<path d="M28 21H31" stroke="#6357B5" stroke-linecap="round"/>
</svg>
