<svg xmlns="http://www.w3.org/2000/svg" width="22" height="23" fill="none"><path fill="#080808" d="M1.513.997a.75.75 0 0 1 1.5.006l-.01 1.986C3 3.8 3 4.342 3.044 4.754l.003.015c.456-.502.96-.96 1.503-1.369A10.706 10.706 0 0 1 11 1.25c5.937 0 10.75 4.813 10.75 10.75S16.937 22.75 11 22.75.25 17.937.25 12a.75.75 0 0 1 1.5 0A9.25 9.25 0 1 0 11 2.75 9.206 9.206 0 0 0 5.45 4.6c-.5.375-.96.799-1.373 1.265l.089.01c.411.046.955.044 1.764.04l1.986-.008a.75.75 0 0 1 .007 1.5l-2.03.009c-.754.003-1.384.006-1.89-.05-.53-.057-1.02-.187-1.445-.516a2.732 2.732 0 0 1-.489-.488c-.329-.425-.458-.915-.516-1.446-.056-.506-.053-1.135-.05-1.89l.01-2.03Z"/><path fill="#080808" d="M10.05 14.96c.4 0 .6.17.6.51 0 .353-.2.53-.6.53H6.67c-.407 0-.61-.177-.61-.53 0-.34.203-.51.61-.51h1.04V10.4l-.96.59a.517.517 0 0 1-.25.08c-.14 0-.26-.06-.36-.18a.636.636 0 0 1-.14-.4c0-.193.087-.343.26-.45l1.55-.96c.2-.12.39-.18.57-.18.187 0 .337.057.45.17.113.113.17.27.17.47v5.42h1.05ZM14.406 11.49c.44 0 .827.097 1.16.29.34.187.603.45.79.79.187.34.28.73.28 1.17 0 .46-.107.867-.32 1.22-.207.353-.503.63-.89.83-.38.193-.82.29-1.32.29-.413 0-.82-.067-1.22-.2a3.278 3.278 0 0 1-1.01-.56.606.606 0 0 1-.23-.47c0-.147.04-.27.12-.37.087-.107.187-.16.3-.16.067 0 .13.013.19.04.06.02.13.057.21.11.267.187.527.33.78.43.253.1.523.15.81.15.44 0 .777-.11 1.01-.33.233-.22.35-.533.35-.94 0-.393-.12-.703-.36-.93-.233-.233-.557-.35-.97-.35-.26 0-.493.037-.7.11-.2.073-.407.197-.62.37a.683.683 0 0 1-.39.13.505.505 0 0 1-.34-.12.4.4 0 0 1-.14-.32V9.55c0-.187.053-.333.16-.44.107-.107.257-.16.45-.16h3.33c.4 0 .6.167.6.5 0 .333-.2.5-.6.5h-2.68v1.9c.34-.24.757-.36 1.25-.36Z"/></svg>