<svg xmlns="http://www.w3.org/2000/svg" width="24" height="25" viewBox="0 0 24 25" fill="none">
	<path stroke="#6357B5" stroke-linecap="round" stroke-width="1.5" d="M13 3.001c3.114.01 4.765.108 5.828 1.17C20 5.344 20 7.23 20 11v4c0 3.771 0 5.657-1.172 6.828C17.657 23 15.771 23 12 23c-3.771 0-5.657 0-6.828-1.172C4 20.657 4 18.771 4 15v-2.999"/><path fill="#3C3C3C" d="M2.73 5h-.75.75Zm0 .8-.554.506a.75.75 0 0 0 1.108 0L2.73 5.8Zm1.284-.294a.75.75 0 1 0-1.108-1.012l1.108 1.012Zm-1.46-1.012a.75.75 0 0 0-1.108 1.012l1.108-1.012ZM10.27 4.2l.554-.506a.75.75 0 0 0-1.108 0l.554.506Zm-1.284.294a.75.75 0 0 0 1.108 1.012L8.986 4.494Zm1.46 1.012a.75.75 0 0 0 1.108-1.012l-1.108 1.012Zm-5.87 1.8A.75.75 0 0 0 3.461 8.31l1.115-1.003ZM8.54 2.83a.75.75 0 0 0 1.17-.938l-1.17.938ZM6.38.25c-2.494 0-4.4 2.193-4.4 4.75h1.5c0-1.86 1.36-3.25 2.9-3.25V.25ZM1.981 5v.8h1.5V5h-1.5Zm1.303 1.306.73-.8-1.108-1.012-.73.8 1.108 1.012Zm0-1.012-.73-.8-1.108 1.012.73.8 1.108-1.012ZM6.62 9.75c2.494 0 4.4-2.193 4.4-4.75h-1.5c0 1.86-1.36 3.25-2.9 3.25v1.5Zm4.4-4.75v-.8h-1.5V5h1.5ZM9.717 3.694l-.73.8 1.108 1.012.73-.8-1.108-1.012Zm0 1.012.73.8 1.108-1.012-.73-.8-1.108 1.012ZM3.46 8.309c.79.879 1.908 1.441 3.158 1.441v-1.5c-.785 0-1.509-.35-2.043-.944L3.461 8.31ZM9.71 1.892C8.914.9 7.726.25 6.381.25v1.5c.843 0 1.617.404 2.159 1.08l1.17-.938Z"/>
	<path stroke="#6357B5" stroke-linecap="round" stroke-width="1.5" d="M15 20H9"/>
</svg>