<svg width="42" height="42" viewBox="0 0 42 42" fill="none" xmlns="http://www.w3.org/2000/svg">
<path d="M5.25 31.5V21C5.25 16.8228 6.90937 12.8168 9.86307 9.86307C12.8168 6.90937 16.8228 5.25 21 5.25C25.1772 5.25 29.1832 6.90937 32.1369 9.86307C35.0906 12.8168 36.75 16.8228 36.75 21V31.5" stroke="#6357B5" stroke-width="3.5" stroke-linecap="round" stroke-linejoin="round"/>
<path d="M36.75 33.2501C36.75 34.1784 36.3813 35.0686 35.7249 35.725C35.0685 36.3814 34.1783 36.7501 33.25 36.7501H31.5C30.5717 36.7501 29.6815 36.3814 29.0251 35.725C28.3687 35.0686 28 34.1784 28 33.2501V28.0001C28 27.0719 28.3687 26.1816 29.0251 25.5252C29.6815 24.8689 30.5717 24.5001 31.5 24.5001H36.75V33.2501ZM5.25 33.2501C5.25 34.1784 5.61875 35.0686 6.27513 35.725C6.9315 36.3814 7.82174 36.7501 8.75 36.7501H10.5C11.4283 36.7501 12.3185 36.3814 12.9749 35.725C13.6313 35.0686 14 34.1784 14 33.2501V28.0001C14 27.0719 13.6313 26.1816 12.9749 25.5252C12.3185 24.8689 11.4283 24.5001 10.5 24.5001H5.25V33.2501Z" stroke="#6357B5" stroke-width="3.5" stroke-linecap="round" stroke-linejoin="round"/>
</svg>
