<svg xmlns="http://www.w3.org/2000/svg" width="24" height="24" fill="none"><path fill="#3C3C3C" fill-rule="evenodd" d="M1.879 3A3 3 0 0 1 4 2.121h7a1 1 0 1 1 0 2H4a1 1 0 0 0-1 1v14a1 1 0 0 0 1 1h14a1 1 0 0 0 1-1v-7a1 1 0 0 1 2 0v7a3 3 0 0 1-3 3H4a3 3 0 0 1-3-3v-14A3 3 0 0 1 1.879 3Z" clip-rule="evenodd"/><path fill="#3C3C3C" fill-rule="evenodd" d="M20 2c-.297 0-.583.118-.793.328l-9.304 9.305-.529 2.114 2.115-.529 9.304-9.304A1.121 1.121 0 0 0 20 2ZM17.793.914a3.121 3.121 0 0 1 4.414 4.414l-9.5 9.5a1 1 0 0 1-.464.264l-4 1a1 1 0 0 1-1.213-1.213l1-4a1 1 0 0 1 .263-.465l9.5-9.5Z" clip-rule="evenodd"/></svg>