<svg xmlns="http://www.w3.org/2000/svg" width="27" height="33" fill="none"><path fill="#fff" d="M26.3-6.75H-1.3a9.577 9.577 0 0 0-6.704 2.744A9.3 9.3 0 0 0-10.788 2.6v27.2a9.3 9.3 0 0 0 2.784 6.607A9.577 9.577 0 0 0-1.3 39.15h27.6a9.577 9.577 0 0 0 6.704-2.743 9.3 9.3 0 0 0 2.783-6.607V2.6a9.3 9.3 0 0 0-2.783-6.606A9.577 9.577 0 0 0 26.3-6.75Zm4.312 36.55a4.22 4.22 0 0 1-1.262 3.005 4.346 4.346 0 0 1-3.05 1.245H-1.3a4.347 4.347 0 0 1-3.05-1.245A4.22 4.22 0 0 1-5.613 29.8V2.6A4.22 4.22 0 0 1-4.35-.405 4.346 4.346 0 0 1-1.3-1.65h27.6c1.143 0 2.24.448 3.05 1.245A4.22 4.22 0 0 1 30.611 2.6v27.2Zm-9.85-21.692a8.118 8.118 0 0 1-.467 4.568 8.246 8.246 0 0 1-2.879 3.61 5.086 5.086 0 0 0-2.329 4.028v.697c0 .912-.493 1.753-1.293 2.208a2.62 2.62 0 0 1-2.588 0 2.543 2.543 0 0 1-1.294-2.208v-.697c.057-3.274 1.723-6.316 4.468-8.16a3.225 3.225 0 0 0 1.113-1.405 3.172 3.172 0 0 0 .18-1.774 3.202 3.202 0 0 0-.897-1.642 3.26 3.26 0 0 0-4.346-.194 3.195 3.195 0 0 0-1.156 2.448c0 .911-.493 1.753-1.294 2.208a2.62 2.62 0 0 1-2.587 0 2.543 2.543 0 0 1-1.294-2.208A8.248 8.248 0 0 1 7.117 3.23 8.508 8.508 0 0 1 14 1.427a8.546 8.546 0 0 1 4.417 2.3 8.342 8.342 0 0 1 2.344 4.347v.034ZM15.037 28.1c.018.164.018.329 0 .493-.001.676-.274 1.324-.759 1.802a2.606 2.606 0 0 1-1.829.746 2.605 2.605 0 0 1-1.828-.746 2.69 2.69 0 0 1-.57-.816 2.784 2.784 0 0 1-.19-.986 2.245 2.245 0 0 1 0-.493c.036-.161.082-.32.139-.476.07-.153.15-.3.241-.442.1-.138.21-.268.328-.391.12-.12.253-.229.397-.323.14-.09.29-.165.448-.22a2.482 2.482 0 0 1 1.966 0c.158.055.309.13.45.22.284.19.53.433.723.714.092.138.168.287.225.442.105.148.192.308.259.476Z"/></svg>