<svg width="48" height="49" viewBox="0 0 48 49" fill="none" xmlns="http://www.w3.org/2000/svg">
<path d="M26 5.00195C32.2286 5.02018 35.5307 5.21705 37.6569 7.34324C40 9.68638 40 13.4576 40 21.0001V29.0001C40 36.5426 40 40.3138 37.6569 42.6569C35.3137 45.0001 31.5425 45.0001 24 45.0001C16.4575 45.0001 12.6863 45.0001 10.3431 42.6569C8 40.3138 8 36.5426 8 29.0001V23.002" stroke="#6357B5" stroke-width="1.5" stroke-linecap="round"/>
<path d="M5.46033 9H4.71033H5.46033ZM5.46033 10.6L4.90637 11.1056C5.04847 11.2613 5.24953 11.35 5.46033 11.35C5.67112 11.35 5.87218 11.2613 6.01428 11.1056L5.46033 10.6ZM7.47461 9.5056C7.75385 9.19966 7.73219 8.72528 7.42625 8.44604C7.12031 8.16681 6.64593 8.18846 6.3667 8.4944L7.47461 9.5056ZM4.55396 8.4944C4.27472 8.18846 3.80034 8.16681 3.4944 8.44604C3.18846 8.72528 3.16681 9.19966 3.44604 9.5056L4.55396 8.4944ZM20.5397 7.4L21.0936 6.8944C20.9515 6.73871 20.7505 6.65 20.5397 6.65C20.3289 6.65 20.1278 6.73871 19.9857 6.8944L20.5397 7.4ZM18.5254 8.4944C18.2462 8.80034 18.2678 9.27472 18.5737 9.55396C18.8797 9.83319 19.3541 9.81154 19.6333 9.5056L18.5254 8.4944ZM21.446 9.5056C21.7253 9.81154 22.1997 9.83319 22.5056 9.55396C22.8115 9.27472 22.8332 8.80034 22.554 8.4944L21.446 9.5056ZM8.59517 14.114C8.31815 13.806 7.84393 13.781 7.53599 14.058C7.22805 14.335 7.20298 14.8092 7.48001 15.1172L8.59517 14.114ZM17.6645 4.1918C17.9236 4.51497 18.3956 4.56692 18.7188 4.30782C19.042 4.04872 19.0939 3.5767 18.8348 3.25353L17.6645 4.1918ZM12.762 0.25C8.25216 0.25 4.71033 4.23346 4.71033 9H6.21033C6.21033 4.92999 9.2066 1.75 12.762 1.75V0.25ZM4.71033 9L4.71033 10.6H6.21033L6.21033 9H4.71033ZM6.01428 11.1056L7.47461 9.5056L6.3667 8.4944L4.90637 10.0944L6.01428 11.1056ZM6.01428 10.0944L4.55396 8.4944L3.44604 9.5056L4.90637 11.1056L6.01428 10.0944ZM13.238 17.75C17.7478 17.75 21.2897 13.7665 21.2897 9H19.7897C19.7897 13.07 16.7934 16.25 13.238 16.25V17.75ZM21.2897 9V7.4H19.7897V9H21.2897ZM19.9857 6.8944L18.5254 8.4944L19.6333 9.5056L21.0936 7.9056L19.9857 6.8944ZM19.9857 7.9056L21.446 9.5056L22.554 8.4944L21.0936 6.8944L19.9857 7.9056ZM7.48001 15.1172C8.93237 16.7316 10.9698 17.75 13.238 17.75V16.25C11.4355 16.25 9.79118 15.4434 8.59517 14.114L7.48001 15.1172ZM18.8348 3.25353C17.3696 1.42598 15.2 0.25 12.762 0.25V1.75C14.698 1.75 16.4533 2.68108 17.6645 4.1918L18.8348 3.25353Z" fill="#6357B5"/>
<path d="M30 39H18" stroke="#6357B5" stroke-width="1.5" stroke-linecap="round"/>
</svg>
