<svg xmlns="http://www.w3.org/2000/svg" width="90" height="90" fill="none"><path fill="#3C3C3C" d="m49.075 80.204.645.382-.645-.382Zm2.033-3.435-.646-.382.646.382Zm-12.216 0-.645.382.645-.382Zm2.033 3.435.645-.382-.645.382Zm9.7-71.954a.75.75 0 0 0 0-1.5v1.5ZM83.25 39.375a.75.75 0 0 0-1.5 0h1.5Zm-74.323 20.3.693-.287-.693.287Zm20.284 11.543-.013.75.013-.75Zm-10.136-1.395-.287.693.287-.693Zm61.998-10.148.693.287-.693-.287ZM60.789 71.218l-.013-.75.013.75Zm10.136-1.395.287.693-.287-.693Zm-54.472-59.56-.392-.64.392.64Zm-6.19 6.19-.64-.392.64.392Zm24.998 55.584.377-.648-.377.648Zm14.46 8.549 2.032-3.435-1.29-.764-2.034 3.435 1.291.764ZM38.246 77.15l2.032 3.435 1.291-.764-2.033-3.435-1.29.764Zm10.182 2.67c-1.52 2.571-5.337 2.571-6.859 0l-1.29.765c2.102 3.552 7.338 3.552 9.44 0l-1.29-.764ZM39.375 8.25h11.25v-1.5h-11.25v1.5ZM81.75 39.375v3.75h1.5v-3.75h-1.5Zm-73.5 3.75v-3.75h-1.5v3.75h1.5Zm-1.5 0c0 4.358 0 7.664.18 10.31.181 2.653.547 4.698 1.304 6.527l1.386-.574c-.67-1.616-1.018-3.478-1.193-6.055-.177-2.583-.177-5.83-.177-10.208h-1.5Zm22.474 27.343c-4.708-.081-7.53-.372-9.862-1.338l-.574 1.386c2.62 1.085 5.703 1.37 10.41 1.452l.026-1.5ZM8.234 59.962a19.5 19.5 0 0 0 10.554 10.554l.574-1.386a18 18 0 0 1-9.742-9.742l-1.386.574ZM81.75 43.125c0 4.379 0 7.625-.177 10.208-.175 2.577-.524 4.44-1.193 6.055l1.386.574c.757-1.83 1.123-3.874 1.304-6.527.18-2.646.18-5.952.18-10.31h-1.5ZM60.802 71.968c4.707-.081 7.79-.367 10.41-1.452l-.574-1.386c-2.331.966-5.154 1.257-9.862 1.338l.026 1.5Zm19.578-12.58a18 18 0 0 1-9.742 9.742l.574 1.386a19.5 19.5 0 0 0 10.554-10.554l-1.386-.574ZM39.375 6.75c-6.123 0-10.768 0-14.444.349-3.688.35-6.478 1.059-8.87 2.525l.784 1.278c2.117-1.297 4.65-1.97 8.228-2.31 3.588-.341 8.15-.342 14.302-.342v-1.5ZM8.25 39.375c0-6.152 0-10.714.342-14.302.34-3.578 1.013-6.111 2.31-8.228l-1.278-.784c-1.466 2.392-2.175 5.182-2.525 8.87-.35 3.676-.349 8.32-.349 14.444h1.5Zm7.811-29.751a19.499 19.499 0 0 0-6.437 6.437l1.278.784a18 18 0 0 1 5.943-5.942l-.784-1.28Zm23.476 66.763c-.78-1.32-1.393-2.355-1.971-3.148-.588-.807-1.174-1.412-1.928-1.85l-.755 1.296c.512.298.953.727 1.47 1.437.527.722 1.098 1.685 1.894 3.03l1.29-.765Zm-10.339-4.42c1.608.029 2.763.05 3.676.15.899.1 1.5.272 2.01.568l.754-1.296c-.758-.44-1.587-.65-2.599-.763-.998-.11-2.235-.13-3.815-.158l-.026 1.5Zm22.555 5.184c.796-1.344 1.367-2.306 1.893-3.029.517-.71.959-1.14 1.47-1.437l-.754-1.296c-.754.439-1.34 1.043-1.928 1.85-.579.793-1.19 1.829-1.972 3.148l1.291.764Zm9.023-6.683c-1.58.027-2.817.048-3.815.158-1.012.112-1.842.322-2.599.763l.754 1.296c.51-.296 1.111-.468 2.01-.568.913-.1 2.068-.121 3.676-.15l-.026-1.499Z"/><circle cx="71.25" cy="18.75" r="11.25" stroke="#3C3C3C" stroke-width="1.5"/></svg>