<svg width="194" height="49" fill="none" xmlns="http://www.w3.org/2000/svg"><path d="m22.245 12.6 10.76 18.64h-21.53l10.77-18.64Zm0-12.6L.565 37.54h43.35L22.245 0Z" fill="#535557"/><path d="M24.835 17.09 7.025 48.03h43l-3.8-6.48h-27.93l10.3-17.94-3.76-6.52Z" fill="#8F87C1"/><path d="m60.021 31 9.386-22.86h.848L80.18 31h2.693v.435H72.299V31h2.93l-3.651-8.436H64.02L60.521 31h2.803v.435h-5.948V31h2.645Zm4.159-8.88h7.24l-3.716-8.594-3.524 8.594ZM99.768 31v.436h-5.862v-2.321h-.063a4.586 4.586 0 0 1-1.402 2.036 3.643 3.643 0 0 1-2.313.705 6.383 6.383 0 0 1-2.804-.602 6.764 6.764 0 0 1-2.154-1.585 7.5 7.5 0 0 1-1.91-5.006 8.004 8.004 0 0 1 .397-2.376 7.318 7.318 0 0 1 1.228-2.329 6.884 6.884 0 0 1 2.122-1.782 6.464 6.464 0 0 1 3.121-.641 3.763 3.763 0 0 1 2.297.657 4.103 4.103 0 0 1 1.355 1.988h.063V9.178h-2.139v-.444h5.98V31h2.084Zm-6.036-8.539a9.34 9.34 0 0 0-.451-2.202 4.15 4.15 0 0 0-1.046-1.671 2.56 2.56 0 0 0-1.853-.665 2.242 2.242 0 0 0-2.242 1.48 7.405 7.405 0 0 0-.515 2.092 30.09 30.09 0 0 0-.142 3.168c0 1.03 0 1.965.079 2.789.03.721.147 1.437.348 2.13a2.9 2.9 0 0 0 .792 1.355c.393.326.893.492 1.402.467a2.931 2.931 0 0 0 2.06-.673 4.247 4.247 0 0 0 1.125-1.703c.254-.709.406-1.45.451-2.202.056-.792.08-1.505.08-2.163 0-.657 0-1.433-.111-2.233M107.927 17.931v2.242h.063c.153-.257.319-.506.499-.745.23-.296.496-.562.792-.792a4.809 4.809 0 0 1 3.042-.958 6.099 6.099 0 0 1 1.845.237c.44.129.855.33 1.228.595.306.218.574.485.792.792.198.3.388.594.555.887.266-.507.623-.961 1.053-1.339a5.305 5.305 0 0 1 1.18-.792c.361-.165.742-.28 1.133-.34.293-.05.59-.076.887-.08a5.887 5.887 0 0 1 2.773.53 3.454 3.454 0 0 1 1.932 2.837c.056.546.08 1.006.08 1.386V31h2.083v.435h-7.763v-.435h1.862v-9.759a3.552 3.552 0 0 0-.491-2.028 1.82 1.82 0 0 0-1.585-.712 2.512 2.512 0 0 0-.855.19 3.818 3.818 0 0 0-.974.562 3.066 3.066 0 0 0-.792.998 3.007 3.007 0 0 0-.333 1.465v9.284h1.853v.435h-7.588v-.435h1.893V20.989a2.574 2.574 0 0 0-.602-1.933 1.884 1.884 0 0 0-1.323-.555 2.809 2.809 0 0 0-2.202 1.102 5.501 5.501 0 0 0-.443.65c-.132.236-.233.49-.301.752-.08.32-.13.645-.151.974-.038.445-.054.892-.047 1.338v7.684h1.853v.435h-7.778v-.435h2.075V18.375h-2.075v-.444h5.83ZM135.832 17.93V31h2.107v.436h-8.064V31h2.107V18.375h-2.115v-.444h5.965Zm-3.501-8.316a2.235 2.235 0 0 1 3.81 1.584 2.138 2.138 0 0 1-.658 1.584 2.23 2.23 0 0 1-3.434-.343 2.236 2.236 0 0 1-.376-1.24 2.168 2.168 0 0 1 .658-1.585M145.781 17.931v2.654h.063a6.507 6.507 0 0 1 1.529-2.068c.704-.6 1.611-.91 2.535-.863a3.166 3.166 0 0 1 2.138.705 2.48 2.48 0 0 1 .793 1.972 2.198 2.198 0 0 1-.46 1.481 1.827 1.827 0 0 1-1.465.531 2.851 2.851 0 0 1-1.323-.3 1.134 1.134 0 0 1-.594-1.118 2.308 2.308 0 0 1 0-.332c0-.15.047-.325.079-.5.032-.174.056-.34.079-.49.024-.151 0-.23 0-.254a1.575 1.575 0 0 0-.095-.388.688.688 0 0 0-.206-.254.704.704 0 0 0-.427-.11c-.287.026-.561.13-.793.3a3.257 3.257 0 0 0-.887.864 5.88 5.88 0 0 0-.705 1.37 5.259 5.259 0 0 0-.301 1.814v8.056h2.488v.435h-8.278v-.435h2.052V18.375h-2.052v-.444h5.83ZM158.003 24.956c0 .793 0 1.521.095 2.29.05.715.222 1.417.507 2.075a3.783 3.783 0 0 0 1.196 1.529c.65.432 1.423.64 2.202.594a4.453 4.453 0 0 0 2.123-.468 5.37 5.37 0 0 0 1.418-1.085c.325-.363.592-.775.792-1.22.139-.277.238-.573.293-.879l.444.159a5.823 5.823 0 0 1-.531 1.275 4.813 4.813 0 0 1-1.046 1.26 5.545 5.545 0 0 1-1.631.974 6.389 6.389 0 0 1-2.377.396 9.323 9.323 0 0 1-3.049-.492 7.133 7.133 0 0 1-2.48-1.417 6.505 6.505 0 0 1-1.647-2.266 7.262 7.262 0 0 1-.602-3.041 6.487 6.487 0 0 1 .57-2.646 7.367 7.367 0 0 1 1.584-2.281 7.995 7.995 0 0 1 2.329-1.584 6.923 6.923 0 0 1 2.883-.61c.748 0 1.491.117 2.202.348a5.793 5.793 0 0 1 1.981 1.07 5.537 5.537 0 0 1 1.457 1.869c.394.864.586 1.807.562 2.756h-9.275v1.394Zm5.038-3.96v-.848a3.248 3.248 0 0 0-.222-1.006 1.944 1.944 0 0 0-.61-.855 1.838 1.838 0 0 0-1.18-.348 2.48 2.48 0 0 0-1.656.506 2.997 2.997 0 0 0-.863 1.276 6.51 6.51 0 0 0-.364 1.671 34.243 34.243 0 0 0-.111 1.719h5.037l-.031-2.115ZM186.099 31v.436h-5.862v-2.321h-.063a4.591 4.591 0 0 1-1.402 2.036 3.644 3.644 0 0 1-2.313.705 6.384 6.384 0 0 1-2.804-.602 6.764 6.764 0 0 1-2.155-1.585 7.503 7.503 0 0 1-1.909-5.006 8.03 8.03 0 0 1 .396-2.376 7.309 7.309 0 0 1 1.228-2.329 6.892 6.892 0 0 1 2.123-1.782 6.464 6.464 0 0 1 3.121-.705 3.762 3.762 0 0 1 2.297.658 4.047 4.047 0 0 1 1.354 1.988h.064V9.177h-2.139v-.443h5.98V31h2.084Zm-6.036-8.53a9.356 9.356 0 0 0-.452-2.203 4.132 4.132 0 0 0-1.037-1.671 2.591 2.591 0 0 0-1.862-.665 2.228 2.228 0 0 0-2.233 1.48 7.105 7.105 0 0 0-.515 2.084 30.198 30.198 0 0 0-.143 3.168c0 1.03 0 1.965.079 2.789.034.72.151 1.436.349 2.13.134.516.408.985.792 1.355.392.326.893.492 1.402.467a2.953 2.953 0 0 0 2.067-.673 4.313 4.313 0 0 0 1.117-1.703 7.61 7.61 0 0 0 .452-2.202c.055-.792.079-1.505.079-2.163 0-.657 0-1.433-.111-2.233" fill="#535557"/><path d="M81.542 47.904v-8.056h.893v7.297h3.81v.759h-4.703ZM94.808 39.848v.759H90.87v2.703h2.798v.76h-2.798v3.075h4.158v.759h-5.052v-8.056h4.83ZM98.089 47.904l2.482-8.056h1.321l2.482 8.056h-.949l-.79-2.522h-2.846l-.791 2.522h-.91Zm1.921-3.281h2.443l-1.162-4.12h-.119l-1.162 4.12ZM107.987 39.848h2.166c2.19 0 3.637 1.383 3.637 4.032 0 2.371-1.273 4.024-3.684 4.024h-2.119v-8.056Zm.893 7.297h1.21c1.85 0 2.807-1.107 2.807-3.265 0-2.372-1.115-3.273-2.767-3.273h-1.25v6.538ZM122.589 39.848v.759h-3.945v2.703h2.806v.76h-2.806v3.075h4.166v.759h-5.06v-8.056h4.839ZM126.716 47.904v-8.056h2.585c1.747 0 2.696.79 2.696 2.118a2.105 2.105 0 0 1-1.581 2.103l1.707 3.835h-1.027l-1.582-3.66h-1.881v3.66h-.917Zm.893-4.42h1.581c1.226 0 1.874-.458 1.874-1.47s-.735-1.407-1.889-1.407h-1.582l.016 2.877ZM140.274 41.903a1.826 1.826 0 0 0-1.873-1.4c-.941 0-1.495.443-1.51 1.25 0 1.763 4.53 1.32 4.53 3.905 0 1.17-.657 2.372-2.712 2.372a2.971 2.971 0 0 1-2.87-2.11l.791-.293a2.185 2.185 0 0 0 2.111 1.628c1.185 0 1.778-.624 1.778-1.447 0-2.055-4.538-1.454-4.538-4a2.207 2.207 0 0 1 .766-1.58 2.192 2.192 0 0 1 1.677-.515 2.648 2.648 0 0 1 2.657 1.984l-.807.206ZM151.176 39.848v8.056h-.893v-3.835h-3.858v3.835h-.894v-8.056h.894v3.462h3.858v-3.462h.893ZM156.916 39.848h-.894v8.056h.894v-8.056ZM161.675 47.904v-8.056h2.815c1.723 0 2.466.98 2.466 2.253 0 1.273-.925 2.213-2.957 2.213h-1.431v3.59h-.893Zm.893-4.349h1.518c1.487 0 1.977-.513 1.977-1.478 0-.964-.569-1.47-1.771-1.47h-1.724v2.949Z" fill="#8F87C1"/><path d="M188.506 10.953a2.373 2.373 0 0 1 1.417-2.246 2.376 2.376 0 1 1 .96 4.55 2.274 2.274 0 0 1-2.377-2.304Zm2.377-1.854a1.86 1.86 0 0 0-1.237 3.13 1.86 1.86 0 0 0 3.066-2.013 1.855 1.855 0 0 0-1.081-1.012 1.856 1.856 0 0 0-.748-.105m-.396 3.113h-.547V9.685h.951c.657 0 1.029.19 1.029.792 0 .602-.261.642-.689.666l.658 1.093h-.555l-.594-1.062h-.253v1.038Zm0-1.481h.483c.293 0 .404-.143.404-.333 0-.19-.167-.285-.428-.285h-.459v.618Z" fill="#535557"/></svg>