<svg width="16" height="16" viewBox="0 0 24 24" fill="none" xmlns="http://www.w3.org/2000/svg">
<path fill-rule="evenodd" clip-rule="evenodd" d="M5.20285 9.21615C2.34132 14.2877 0 18.5104 0 18.5999C0 18.7145 0.875544 18.7626 2.97074 18.7626H5.94135L4.53295 21.2566C3.75824 22.6282 3.12441 23.8067 3.12441 23.8753C3.12441 23.9438 7.82167 24 13.5628 24C19.3039 24 24.0007 23.951 24 23.8909C23.9994 23.8308 23.6001 23.0944 23.1124 22.2542L22.2259 20.7266L15.4445 20.6888C11.7148 20.668 8.66569 20.6025 8.66867 20.5433C8.67165 20.4841 8.88383 20.0756 9.14017 19.6355L9.60628 18.8353L15.3271 18.7973C20.3882 18.7636 21.0383 18.7336 20.9646 18.5372C20.8015 18.1015 10.5787 0.00480237 10.493 1.38096e-06C10.445 -0.00276282 8.06438 4.14456 5.20285 9.21615ZM11.0613 7.25837C11.3826 7.81237 11.6455 8.34281 11.6455 8.43679C11.6455 8.53092 10.7669 10.1721 9.69277 12.0841L7.74001 15.5604L6.48556 15.5612C5.79549 15.5616 5.25227 15.5103 5.2784 15.447C5.34089 15.2952 10.4327 6.25729 10.4577 6.25365C10.4683 6.2522 10.7399 6.70422 11.0613 7.25837ZM14.5342 13.4177C15.8903 15.8099 16.0024 15.5619 13.5662 15.5619C12.4187 15.5619 11.5011 15.5082 11.5272 15.4426C11.6062 15.2434 13.543 11.7793 13.5754 11.7793C13.5919 11.7793 14.0235 12.5166 14.5342 13.4177Z" fill="black"/>
</svg>
