<?xml version="1.0" standalone="no"?>
<!DOCTYPE svg PUBLIC "-//W3C//DTD SVG 20010904//EN"
 "http://www.w3.org/TR/2001/REC-SVG-20010904/DTD/svg10.dtd">
<svg version="1.0" xmlns="http://www.w3.org/2000/svg"
 width="339.000000pt" height="339.000000pt" viewBox="0 0 339.000000 339.000000"
 preserveAspectRatio="xMidYMid meet">
<metadata>
Created by potrace 1.11, written by Peter Selinger 2001-2013
</metadata>
<g transform="translate(0.000000,339.000000) scale(0.100000,-0.100000)"
fill="#000000" stroke="none">
<path d="M1418 3168 c-36 -62 -75 -129 -86 -148 -51 -89 -234 -407 -447 -775
-92 -159 -175 -303 -185 -320 -9 -16 -41 -72 -71 -123 -30 -52 -63 -110 -75
-130 -11 -20 -123 -214 -248 -431 -125 -216 -237 -410 -248 -430 -11 -20 -27
-45 -34 -56 -8 -11 -14 -23 -14 -26 0 -4 177 -8 393 -8 215 0 407 0 425 0 l32
-1 -23 -37 c-13 -21 -87 -148 -164 -283 -78 -135 -150 -261 -162 -280 -26 -44
-61 -108 -61 -112 0 -5 2920 -2 2925 3 4 4 -237 424 -251 438 -2 2 -429 4
-949 4 -520 0 -945 3 -945 8 0 4 19 40 43 81 23 40 51 89 61 109 41 79 -49 71
835 71 435 0 791 3 791 7 0 5 -90 164 -300 526 -9 17 -61 107 -115 200 -54 94
-138 239 -187 323 -49 84 -101 174 -115 200 -14 26 -97 169 -183 317 -86 149
-168 290 -182 315 -25 45 -261 453 -312 540 -15 25 -36 64 -48 88 -12 23 -25
42 -29 42 -3 0 -36 -51 -71 -112z m160 -904 l83 -145 -32 -57 c-36 -64 -52
-91 -101 -177 -19 -33 -63 -109 -98 -170 -102 -178 -151 -262 -202 -350 -46
-79 -89 -155 -102 -182 -6 -13 -15 -23 -21 -24 -23 -3 -345 -4 -345 -1 0 2 26
49 59 105 32 56 68 118 78 137 11 19 80 139 153 265 73 127 141 244 150 260
10 17 59 102 110 190 51 88 110 190 132 228 21 37 42 67 46 67 4 0 44 -66 90
-146z m359 -621 c4 -10 16 -34 29 -53 77 -124 245 -423 239 -428 -7 -7 -575
-10 -575 -3 0 12 285 501 292 501 5 0 12 -8 15 -17z"/>
</g>
</svg>
