<?xml version="1.0" encoding="utf-8"?>
<svg xmlns="http://www.w3.org/2000/svg" viewBox="0 0 401.49 145.92"><defs><style>.cls-1{fill:#fff;}.cls-2{fill:#8b7edd;}</style></defs><title>cra-full-logo</title><path class="cls-1" d="M102.18,93.55H36.47l32.86-56.9ZM53,84H85.64L69.33,55.75Z"/><polygon class="cls-2" points="73.26 62.56 46.26 109.44 111.43 109.44 105.67 99.62 63.35 99.62 78.96 72.43 73.26 62.56"/><path class="cls-1" d="M125.54,84.45l16.94-41.27H144l17.91,41.27h4.89v.79h-19.1v-.79H153L146.4,69.21H132.76l-6.31,15.24h5.06v.79H120.76v-.79Zm7.5-16h13.08L139.41,52.9Z"/><path class="cls-1" d="M196.28,84.45v.79H185.7V81h-.11a8.3,8.3,0,0,1-2.53,3.66A6.49,6.49,0,0,1,178.88,86a11.68,11.68,0,0,1-5.06-1.08A12.41,12.41,0,0,1,169.93,82a13.45,13.45,0,0,1-3.44-9,14.38,14.38,0,0,1,.71-4.26,13,13,0,0,1,2.22-4.21,12.18,12.18,0,0,1,3.83-3.21,11.59,11.59,0,0,1,5.63-1.28A6.76,6.76,0,0,1,183,61.25a7.51,7.51,0,0,1,2.45,3.58h.11V45.05h-3.86v-.79h10.8V84.45ZM185.39,69a17.32,17.32,0,0,0-.82-4,7.46,7.46,0,0,0-1.88-3,4.62,4.62,0,0,0-3.35-1.19,4.42,4.42,0,0,0-2.42.62,4.47,4.47,0,0,0-1.62,2.05,12.92,12.92,0,0,0-.88,3.78,54.69,54.69,0,0,0-.26,5.77c0,1.85.05,3.53.15,5a16.93,16.93,0,0,0,.62,3.84,5.32,5.32,0,0,0,1.42,2.44,3.62,3.62,0,0,0,2.53.85A5.31,5.31,0,0,0,182.61,84a7.61,7.61,0,0,0,2-3.07,14.15,14.15,0,0,0,.83-4c.09-1.42.14-2.72.14-3.89S185.52,70.48,185.39,69Z"/><path class="cls-1" d="M211,60.86v4h.12a14.65,14.65,0,0,1,.91-1.33,7,7,0,0,1,1.5-1.48,8.91,8.91,0,0,1,2.28-1.22,8.78,8.78,0,0,1,3.21-.52,11.2,11.2,0,0,1,3.32.43,7.65,7.65,0,0,1,2.22,1.08A6.08,6.08,0,0,1,226,63.3c.36.53.69,1.06,1,1.59a8.25,8.25,0,0,1,1.9-2.41A9,9,0,0,1,231,61.11a7.67,7.67,0,0,1,2.05-.62,11.78,11.78,0,0,1,6.59.82,6.45,6.45,0,0,1,2.56,2.3,6.78,6.78,0,0,1,.94,2.82c.09,1,.14,1.82.14,2.5V84.45H247v.79H233v-.79h3.36V66.82a6.38,6.38,0,0,0-.89-3.66,3.29,3.29,0,0,0-2.92-1.28,4.49,4.49,0,0,0-1.54.34,6.75,6.75,0,0,0-1.76,1A5.79,5.79,0,0,0,227.8,65a5.49,5.49,0,0,0-.6,2.65V84.45h3.36v.79h-13.7v-.79h3.41V66.37a4.64,4.64,0,0,0-1.08-3.5,3.47,3.47,0,0,0-2.39-1,5.1,5.1,0,0,0-4,2A9.16,9.16,0,0,0,212,65a5.85,5.85,0,0,0-.55,1.37,11.4,11.4,0,0,0-.28,1.76c-.06.66-.08,1.47-.08,2.42V84.45h3.35v.79h-14v-.79h3.75V61.65h-3.75v-.79Z"/><path class="cls-1" d="M261.37,60.86V84.45h3.81v.79H250.63v-.79h3.8V61.65h-3.8v-.79Zm-6.31-15.07a4,4,0,0,1,6.88,2.84,4,4,0,1,1-6.88-2.84Z"/><path class="cls-1" d="M279.33,60.86v4.77h.12a11.7,11.7,0,0,1,2.75-3.72,6.61,6.61,0,0,1,4.58-1.57,5.73,5.73,0,0,1,3.87,1.28,4.48,4.48,0,0,1,1.47,3.56,4,4,0,0,1-.82,2.67,3.3,3.3,0,0,1-2.64,1,5.25,5.25,0,0,1-2.39-.54,2,2,0,0,1-1.08-2c0-.12,0-.32.05-.6s.09-.59.15-.91l.14-.88c0-.27.06-.42.06-.46a3,3,0,0,0-.17-.71,1.21,1.21,0,0,0-.37-.45,1.26,1.26,0,0,0-.77-.2,2.85,2.85,0,0,0-1.42.54,5.85,5.85,0,0,0-1.59,1.56A10.11,10.11,0,0,0,280,66.63a9.25,9.25,0,0,0-.54,3.26V84.45h4.49v.79H268.82v-.79h3.69V61.65h-3.69v-.79Z"/><path class="cls-1" d="M301.39,73.53c0,1.37.05,2.74.17,4.12a11.59,11.59,0,0,0,.91,3.76,6.88,6.88,0,0,0,2.16,2.75,6.45,6.45,0,0,0,4,1.08,8,8,0,0,0,3.84-.85,9.46,9.46,0,0,0,2.55-2,8.38,8.38,0,0,0,1.48-2.19,6.34,6.34,0,0,0,.54-1.59l.8.28a10,10,0,0,1-1,2.31A8.73,8.73,0,0,1,315,83.51a10.27,10.27,0,0,1-3,1.76,11.31,11.31,0,0,1-4.26.71,16.77,16.77,0,0,1-5.52-.88,13.21,13.21,0,0,1-4.46-2.56,11.71,11.71,0,0,1-3-4.09A13.31,13.31,0,0,1,293.71,73a11.77,11.77,0,0,1,1-4.77,13.4,13.4,0,0,1,2.81-4.12,14.23,14.23,0,0,1,4.21-2.9,12.29,12.29,0,0,1,5.2-1.11,13.42,13.42,0,0,1,4,.62,10.64,10.64,0,0,1,3.58,1.94A10.18,10.18,0,0,1,317.14,66a11.16,11.16,0,0,1,1,5H301.39Zm9.09-7.16c0-.42,0-.93-.05-1.54A6.21,6.21,0,0,0,310,63a3.61,3.61,0,0,0-1.11-1.54,3.26,3.26,0,0,0-2.13-.62,4.49,4.49,0,0,0-3,.9,5.51,5.51,0,0,0-1.56,2.31,11.5,11.5,0,0,0-.65,3c-.1,1.08-.16,2.11-.2,3.1h9.09Z"/><path class="cls-1" d="M352.1,84.45v.79H341.52V81h-.11a8.3,8.3,0,0,1-2.53,3.66A6.49,6.49,0,0,1,334.7,86a11.65,11.65,0,0,1-5.06-1.08A12.41,12.41,0,0,1,325.75,82a13.45,13.45,0,0,1-3.44-9,14.38,14.38,0,0,1,.71-4.26,13,13,0,0,1,2.22-4.21,12.18,12.18,0,0,1,3.83-3.21,11.59,11.59,0,0,1,5.63-1.28,6.76,6.76,0,0,1,4.15,1.19,7.51,7.51,0,0,1,2.45,3.58h.11V45.05h-3.87v-.79h10.81V84.45ZM341.21,69a17.32,17.32,0,0,0-.82-4,7.46,7.46,0,0,0-1.88-3,4.62,4.62,0,0,0-3.35-1.19,4.42,4.42,0,0,0-2.42.62,4.47,4.47,0,0,0-1.62,2.05,12.92,12.92,0,0,0-.88,3.78,54.69,54.69,0,0,0-.26,5.77c0,1.85,0,3.53.15,5a16.93,16.93,0,0,0,.62,3.84,5.32,5.32,0,0,0,1.42,2.44,3.62,3.62,0,0,0,2.53.85A5.31,5.31,0,0,0,338.43,84a7.61,7.61,0,0,0,2-3.07,14.15,14.15,0,0,0,.83-4c.09-1.42.14-2.72.14-3.89S341.34,70.48,341.21,69Z"/><path class="cls-2" d="M174.59,110.34v-13h2.48v10.9h5.65v2.09Z"/><path class="cls-2" d="M188.29,110.34v-13h8.6v2.09h-6.11v3.09h4.44v2.09h-4.44v3.63h6.31v2.09Z"/><path class="cls-2" d="M205.35,97.33h3.09l3.69,13h-2.47l-.72-2.81h-4.1l-.77,2.81H201.6Zm0,8.15h3L207,99.83h0Z"/><path class="cls-2" d="M217.36,97.35h4.3c3.44,0,5.81,1.91,5.83,6.49s-2.39,6.5-5.83,6.5h-4.3Zm2.48,10.9h1.66c2.84,0,3.51-2.09,3.51-4.41s-.67-4.4-3.51-4.4h-1.66Z"/><path class="cls-2" d="M233.06,110.34v-13h8.6v2.09h-6.11v3.09H240v2.09h-4.44v3.63h6.31v2.09Z"/><path class="cls-2" d="M247.54,110.34v-13h5.19c3,0,4.13,1.71,4.15,3.85a3.22,3.22,0,0,1-2.37,3.35l2.86,5.79h-2.76l-2.44-5.29H250v5.29ZM250,103h1.83c1.94,0,2.54-.61,2.54-1.83s-.74-1.84-2.11-1.84H250Z"/><path class="cls-2" d="M269.27,100.8A2.39,2.39,0,0,0,267,99.11c-1.08,0-1.85.43-1.85,1.44,0,2.23,6.69,1.76,6.69,6,0,2.67-1.67,4-4.55,4a5.16,5.16,0,0,1-4.86-3.08l2.06-.9a3,3,0,0,0,2.82,2c1.24,0,2.19-.46,2.19-1.72,0-2.56-6.69-2-6.69-6,0-2.32,1.94-3.63,4.19-3.63a4.72,4.72,0,0,1,4.59,2.93Z"/><path class="cls-2" d="M277.83,110.34v-13h2.49v5.18h5V97.35h2.48v13h-2.48v-5.58h-5v5.58Z"/><path class="cls-2" d="M294.65,110.34v-13h2.49v13Z"/><path class="cls-2" d="M303.72,110.34v-13h4.75c2.81,0,4.59,1.17,4.59,3.87s-1.78,3.87-4.59,3.87H306.2v5.25Zm2.48-7.27h2c1.87,0,2.39-.7,2.39-1.85s-.52-1.86-2.39-1.86h-2Z"/><path class="cls-1" d="M356.44,48.26a4.29,4.29,0,1,1,4.29,4.16A4.1,4.1,0,0,1,356.44,48.26Zm4.29-3.36a3.36,3.36,0,0,0,0,6.71,3.36,3.36,0,1,0,0-6.71ZM360,50.53h-1V46h1.71c1.19,0,1.86.34,1.86,1.38,0,.84-.48,1.17-1.25,1.21l1.19,2h-1l-1.07-1.91H360Zm0-2.68h.87c.53,0,.74-.25.74-.6s-.32-.52-.79-.52H360Z"/></svg>
