<svg xmlns="http://www.w3.org/2000/svg" xmlns:xlink="http://www.w3.org/1999/xlink" viewBox="0 0 228.35 58.5">
  <defs>
    <style>
      .rev-cls-1 {
        fill: none;
      }

      .rev-cls-2 {
        fill: #535557;
      }

      .rev-cls-3 {
        fill: #8f87c1;
      }

      .rev-cls-4 {
        clip-path: url(#clip-path);
      }
    </style>
    <clipPath id="clip-path" transform="translate(0 0)">
      <rect class="rev-cls-1" width="228.35" height="58.5"/>
    </clipPath>
  </defs>
  <title>Asset 5</title>
  <g id="Layer_2" data-name="Layer 2">
    <g id="Layer_1-2" data-name="Layer 1">
      <g>
        <path class="rev-cls-2" d="M21.68,12.6,32.44,31.24H10.91Zm0-12.6L0,37.54H43.35Z" transform="translate(0 0)"/>
        <polygon class="rev-cls-3" points="24.27 17.09 6.46 48.03 49.46 48.03 45.66 41.55 17.73 41.55 28.03 23.61 24.27 17.09"/>
        <path class="rev-cls-2" d="M60.15,37,72,8.14h1.07L85.6,37H89v.55H75.65V37h3.7L74.74,26.35H65.2L60.78,37h3.54v.55H56.81V37ZM65.4,25.79h9.14L69.85,14.94Z" transform="translate(0 0)"/>
        <g class="rev-cls-4">
          <path class="rev-cls-2" d="M110.33,37v.55h-7.4V34.62h-.08a5.79,5.79,0,0,1-1.77,2.57,4.6,4.6,0,0,1-2.92.89,8.06,8.06,0,0,1-3.54-.76,8.54,8.54,0,0,1-2.72-2A9.47,9.47,0,0,1,89.49,29a10.1,10.1,0,0,1,.5-3,9.24,9.24,0,0,1,1.55-2.94,8.69,8.69,0,0,1,2.68-2.25A8.16,8.16,0,0,1,98.16,20a4.75,4.75,0,0,1,2.9.83,5.18,5.18,0,0,1,1.71,2.51h.08V9.45h-2.7V8.89h7.55V37Zm-7.62-10.78a11.8,11.8,0,0,0-.57-2.78,5.24,5.24,0,0,0-1.32-2.11,3.23,3.23,0,0,0-2.34-.84,2.83,2.83,0,0,0-2.83,1.87A9.35,9.35,0,0,0,95,25a38,38,0,0,0-.18,4c0,1.3,0,2.48.1,3.52a11.34,11.34,0,0,0,.44,2.69,3.66,3.66,0,0,0,1,1.71,2.57,2.57,0,0,0,1.77.59,3.7,3.7,0,0,0,2.6-.85,5.36,5.36,0,0,0,1.42-2.15,10,10,0,0,0,.57-2.78c.07-1,.1-1.9.1-2.73s0-1.81-.14-2.82" transform="translate(0 0)"/>
          <path class="rev-cls-2" d="M120.63,20.5v2.83h.08a10.27,10.27,0,0,1,.63-.94,5.72,5.72,0,0,1,1-1,6.07,6.07,0,0,1,3.84-1.21,7.71,7.71,0,0,1,2.33.3,5.2,5.2,0,0,1,1.55.75,4.29,4.29,0,0,1,1,1c.25.38.49.75.7,1.12a5.9,5.9,0,0,1,1.33-1.69,6.7,6.7,0,0,1,1.49-1,5.48,5.48,0,0,1,1.43-.43,7.51,7.51,0,0,1,1.12-.1,7.43,7.43,0,0,1,3.5.67,4.36,4.36,0,0,1,2.44,3.58c.07.69.1,1.27.1,1.75V37h2.63v.55H136V37h2.35V24.68a4.48,4.48,0,0,0-.62-2.56,2.29,2.29,0,0,0-2-.9,3.17,3.17,0,0,0-1.08.24,4.83,4.83,0,0,0-1.23.71,3.88,3.88,0,0,0-1,1.26,3.8,3.8,0,0,0-.42,1.85V37h2.34v.55h-9.58V37h2.39V24.36a3.24,3.24,0,0,0-.76-2.44,2.38,2.38,0,0,0-1.67-.7,3.55,3.55,0,0,0-2.78,1.39,7,7,0,0,0-.56.82,4.1,4.1,0,0,0-.38.95,6.92,6.92,0,0,0-.19,1.23,16.7,16.7,0,0,0-.06,1.69V37h2.34v.55h-9.82V37h2.62V21.06h-2.62V20.5Z" transform="translate(0 0)"/>
          <path class="rev-cls-2" d="M155.86,20.5V37h2.66v.55H148.34V37H151V21.06h-2.67V20.5ZM151.44,10a2.82,2.82,0,0,1,4.81,2,2.68,2.68,0,0,1-.83,2,2.82,2.82,0,0,1-4.81-2,2.73,2.73,0,0,1,.83-2" transform="translate(0 0)"/>
          <path class="rev-cls-2" d="M168.42,20.5v3.35h.08a8.21,8.21,0,0,1,1.93-2.61,4.58,4.58,0,0,1,3.2-1.09,4,4,0,0,1,2.7.89,3.13,3.13,0,0,1,1,2.49,2.77,2.77,0,0,1-.58,1.87,2.3,2.3,0,0,1-1.85.67,3.6,3.6,0,0,1-1.67-.38,1.43,1.43,0,0,1-.75-1.41,3.06,3.06,0,0,1,0-.42c0-.19.06-.41.1-.63s.07-.43.1-.62,0-.29,0-.32a2.05,2.05,0,0,0-.12-.49.88.88,0,0,0-.26-.32.89.89,0,0,0-.54-.14,2,2,0,0,0-1,.38,4.1,4.1,0,0,0-1.12,1.09,7.37,7.37,0,0,0-.89,1.73,6.59,6.59,0,0,0-.38,2.29V37h3.14v.55H161.06V37h2.59V21.06h-2.59V20.5Z" transform="translate(0 0)"/>
          <path class="rev-cls-2" d="M183.85,29.37c0,1,0,1.92.12,2.89a8,8,0,0,0,.64,2.62,4.78,4.78,0,0,0,1.51,1.93,4.53,4.53,0,0,0,2.78.75,5.62,5.62,0,0,0,2.68-.59,6.77,6.77,0,0,0,1.79-1.37,6,6,0,0,0,1-1.54,4.1,4.1,0,0,0,.37-1.11l.56.2a7.28,7.28,0,0,1-.67,1.61,6.08,6.08,0,0,1-1.32,1.59,7,7,0,0,1-2.06,1.23,8.06,8.06,0,0,1-3,.5,11.77,11.77,0,0,1-3.85-.62,9,9,0,0,1-3.13-1.79,8.22,8.22,0,0,1-2.08-2.86,9.17,9.17,0,0,1-.76-3.84,8.2,8.2,0,0,1,.72-3.34,9.29,9.29,0,0,1,2-2.88,10.08,10.08,0,0,1,2.94-2,8.74,8.74,0,0,1,3.64-.77,9,9,0,0,1,2.78.44,7.31,7.31,0,0,1,2.5,1.35,7,7,0,0,1,1.84,2.36,7.91,7.91,0,0,1,.71,3.48H183.85Zm6.36-5c0-.29,0-.65,0-1.07a4.09,4.09,0,0,0-.28-1.27,2.45,2.45,0,0,0-.77-1.08,2.32,2.32,0,0,0-1.49-.44,3.13,3.13,0,0,0-2.09.64,3.78,3.78,0,0,0-1.09,1.61,8.23,8.23,0,0,0-.46,2.11c-.07.75-.11,1.48-.14,2.17h6.36Z" transform="translate(0 0)"/>
          <path class="rev-cls-2" d="M219.32,37v.55h-7.4V34.62h-.08a5.79,5.79,0,0,1-1.77,2.57,4.6,4.6,0,0,1-2.92.89,8.06,8.06,0,0,1-3.54-.76,8.54,8.54,0,0,1-2.72-2A9.47,9.47,0,0,1,198.48,29a10.1,10.1,0,0,1,.5-3,9.24,9.24,0,0,1,1.55-2.94,8.69,8.69,0,0,1,2.68-2.25,8.16,8.16,0,0,1,3.94-.89,4.75,4.75,0,0,1,2.9.83,5.11,5.11,0,0,1,1.71,2.51h.08V9.45h-2.7V8.89h7.55V37ZM211.7,26.23a11.8,11.8,0,0,0-.57-2.78,5.22,5.22,0,0,0-1.31-2.11,3.27,3.27,0,0,0-2.35-.84,2.81,2.81,0,0,0-2.82,1.87A9,9,0,0,0,204,25a38,38,0,0,0-.18,4c0,1.3,0,2.48.1,3.52a11.88,11.88,0,0,0,.44,2.69,3.66,3.66,0,0,0,1,1.71,2.57,2.57,0,0,0,1.77.59,3.73,3.73,0,0,0,2.61-.85,5.45,5.45,0,0,0,1.41-2.15,9.61,9.61,0,0,0,.57-2.78c.07-1,.1-1.9.1-2.73s0-1.81-.14-2.82" transform="translate(0 0)"/>
          <polygon class="rev-cls-3" points="87.32 58.36 87.32 48.17 88.45 48.17 88.45 57.4 93.27 57.4 93.27 58.36 87.32 58.36"/>
          <polygon class="rev-cls-3" points="104.1 48.17 104.1 49.13 99.12 49.13 99.12 52.55 102.66 52.55 102.66 53.51 99.12 53.51 99.12 57.4 104.38 57.4 104.38 58.36 97.99 58.36 97.99 48.17 104.1 48.17"/>
          <path class="rev-cls-3" d="M108.25,58.36l3.14-10.19h1.67l3.14,10.19H115l-1-3.19H110.4l-1,3.19Zm2.43-4.15h3.09L112.3,49h-.15Z" transform="translate(0 0)"/>
          <path class="rev-cls-3" d="M120.77,48.17h2.74c2.77,0,4.6,1.75,4.6,5.1,0,3-1.61,5.09-4.66,5.09h-2.68Zm1.13,9.23h1.53c2.34,0,3.55-1.4,3.55-4.13,0-3-1.41-4.14-3.5-4.14H121.9Z" transform="translate(0 0)"/>
          <polygon class="rev-cls-3" points="139.24 48.17 139.24 49.13 134.25 49.13 134.25 52.55 137.8 52.55 137.8 53.51 134.25 53.51 134.25 57.4 139.52 57.4 139.52 58.36 133.12 58.36 133.12 48.17 139.24 48.17"/>
          <path class="rev-cls-3" d="M144.46,58.36V48.17h3.27c2.21,0,3.41,1,3.41,2.68a2.66,2.66,0,0,1-2,2.66l2.16,4.85H150L148,53.73h-2.38v4.63Zm1.13-5.59h2c1.55,0,2.37-.58,2.37-1.86s-.93-1.78-2.39-1.78h-2Z" transform="translate(0 0)"/>
          <path class="rev-cls-3" d="M161.61,50.77A2.31,2.31,0,0,0,159.24,49c-1.19,0-1.89.56-1.91,1.58,0,2.23,5.73,1.67,5.73,4.94,0,1.48-.83,3-3.43,3A3.76,3.76,0,0,1,156,55.85l1-.37a2.77,2.77,0,0,0,2.67,2.06c1.5,0,2.25-.79,2.25-1.83,0-2.6-5.74-1.84-5.74-5.06A2.78,2.78,0,0,1,159.27,48a3.35,3.35,0,0,1,3.36,2.51Z" transform="translate(0 0)"/>
          <polygon class="rev-cls-3" points="175.4 48.17 175.4 58.36 174.27 58.36 174.27 53.51 169.39 53.51 169.39 58.36 168.26 58.36 168.26 48.17 169.39 48.17 169.39 52.55 174.27 52.55 174.27 48.17 175.4 48.17"/>
          <rect class="rev-cls-3" x="181.53" y="48.17" width="1.13" height="10.19"/>
          <path class="rev-cls-3" d="M188.68,58.36V48.17h3.56c2.18,0,3.12,1.24,3.12,2.85s-1.17,2.8-3.74,2.8h-1.81v4.54Zm1.13-5.5h1.92c1.88,0,2.5-.65,2.5-1.87s-.72-1.86-2.24-1.86h-2.18Z" transform="translate(0 0)"/>
          <path class="rev-cls-2" d="M222.36,11.69a3,3,0,1,1,3,2.91,2.87,2.87,0,0,1-3-2.91m3-2.34a2.35,2.35,0,0,0,0,4.69,2.35,2.35,0,1,0,0-4.69m-.5,3.93h-.69V10.09h1.2c.83,0,1.3.24,1.3,1s-.33.81-.87.84l.83,1.38h-.7l-.75-1.34h-.32Zm0-1.87h.61c.37,0,.51-.18.51-.42s-.21-.36-.54-.36h-.58Z" transform="translate(0 0)"/>
        </g>
      </g>
    </g>
  </g>
</svg>
